<svg width="34" height="27" viewBox="0 0 34 27" fill="none" xmlns="http://www.w3.org/2000/svg">
<path d="M17.1496 1.70911C19.6553 0.501835 22.4259 -0.0819763 25.2166 0.00926528C28.0072 0.100507 30.7319 0.863992 33.15 2.23226C33.379 2.36181 33.5739 2.54191 33.7194 2.75824C33.8649 2.97458 33.9569 3.22119 33.9881 3.47847L34 3.67507V25.3339C34 25.6264 33.9214 25.9137 33.7722 26.1669C33.623 26.4202 33.4084 26.6305 33.15 26.7768C32.8916 26.923 32.5984 27 32.3 27C32.0016 27 31.7084 26.923 31.45 26.7767C29.3825 25.6069 27.0373 24.9911 24.65 24.9911C22.2627 24.9911 19.9175 25.6069 17.85 26.7767C17.5916 26.923 17.2984 27 17 27C16.7016 27 16.4084 26.923 16.15 26.7767C14.1587 25.6498 11.9084 25.0361 9.60938 24.993C7.31036 24.9499 5.03773 25.4788 3.0039 26.5302L2.448 26.8301L2.2729 26.9034L2.1896 26.93L2.0026 26.9733L1.8989 26.99L1.7 27H1.6286L1.4416 26.98L1.3107 26.9567L1.1271 26.9034L0.9129 26.8101L0.7514 26.7168L0.6001 26.6051L0.4981 26.5118L0.374 26.3752L0.2652 26.2269L0.2278 26.167L0.1734 26.067L0.0986001 25.8954L0.0714001 25.8138L0.0272001 25.6305L0.0102001 25.5289L0.00340016 25.4472L0 25.3339V3.67507C7.58067e-06 3.38262 0.0785619 3.09533 0.227768 2.84206C0.376973 2.58879 0.591574 2.37848 0.85 2.23226C3.26807 0.863992 5.99281 0.100507 8.78343 0.00926528C11.5741 -0.0819763 14.3447 0.501835 16.8504 1.70911L17 1.78242L17.1496 1.70911Z" fill="#FFB800"/>
</svg>
