<svg width="36" height="33" viewBox="0 0 36 33" fill="none" xmlns="http://www.w3.org/2000/svg">
<path d="M26.3333 23L33 16.3333M33 16.3333L26.3333 9.66667M33 16.3333H9.66667M19.6667 23V24.6667C19.6667 25.9928 19.1399 27.2645 18.2022 28.2022C17.2645 29.1399 15.9927 29.6667 14.6667 29.6667H8C6.67392 29.6667 5.40215 29.1399 4.46447 28.2022C3.52678 27.2645 3 25.9928 3 24.6667V8C3 6.67392 3.52678 5.40215 4.46447 4.46447C5.40215 3.52678 6.67392 3 8 3H14.6667C15.9927 3 17.2645 3.52678 18.2022 4.46447C19.1399 5.40215 19.6667 6.67392 19.6667 8V9.66667" stroke="#FFB800" stroke-width="5" stroke-linecap="round" stroke-linejoin="round"/>
</svg>
