<svg width="30" height="30" viewBox="0 0 30 30" fill="none" xmlns="http://www.w3.org/2000/svg">
<path d="M7.18812 27.4653L8.9901 25.6634L4.33663 21.0099L2.53465 22.8119V24.9307H5.06931V27.4653H7.18812ZM17.5446 9.08911C17.5446 8.79868 17.3993 8.65347 17.1089 8.65347C16.9769 8.65347 16.8647 8.69967 16.7723 8.79208L6.0396 19.5248C5.94719 19.6172 5.90099 19.7294 5.90099 19.8614C5.90099 20.1518 6.0462 20.297 6.33663 20.297C6.46865 20.297 6.58086 20.2508 6.67327 20.1584L17.4059 9.42574C17.4984 9.33333 17.5446 9.22112 17.5446 9.08911ZM16.4752 5.28713L24.7129 13.5248L8.23762 30H0V21.7624L16.4752 5.28713ZM30 7.18812C30 7.88779 29.7558 8.48185 29.2673 8.9703L25.9802 12.2574L17.7426 4.0198L21.0297 0.752475C21.5049 0.250825 22.099 0 22.8119 0C23.5116 0 24.1122 0.250825 24.6139 0.752475L29.2673 5.38614C29.7558 5.90099 30 6.50165 30 7.18812Z" fill="#FFB800"/>
</svg>
