<svg width="229" height="37" viewBox="0 0 229 37" fill="none" xmlns="http://www.w3.org/2000/svg">
<path d="M12.0361 21.984C8.00406 20.704 5.09206 19.12 3.30006 17.232C1.50806 15.312 0.612063 12.976 0.612063 10.224C0.612063 7.216 1.65206 4.848 3.73206 3.12C5.84406 1.36 8.85206 0.48 12.7561 0.48C15.7001 0.48 18.3721 0.815999 20.7721 1.488C21.5401 1.712 22.1481 2.176 22.5961 2.88C23.0761 3.552 23.3161 4.304 23.3161 5.136V6.528C23.3161 7.168 23.0441 7.664 22.5001 8.016C21.9561 8.368 21.3801 8.432 20.7721 8.208C18.0521 7.248 15.5401 6.768 13.2361 6.768C10.2921 6.768 8.82006 7.92 8.82006 10.224C8.82006 12.176 10.1001 13.568 12.6601 14.4C17.0761 15.744 20.1321 17.312 21.8281 19.104C23.5561 20.896 24.4201 23.248 24.4201 26.16C24.4201 33.04 20.0841 36.48 11.4121 36.48C8.66006 36.48 6.16406 36.048 3.92406 35.184C3.15606 34.896 2.54806 34.4 2.10006 33.696C1.68406 32.96 1.47606 32.16 1.47606 31.296V29.76C1.47606 29.184 1.73206 28.752 2.24406 28.464C2.75606 28.144 3.26806 28.112 3.78006 28.368C6.11606 29.52 8.50006 30.096 10.9321 30.096C12.6281 30.096 13.9081 29.776 14.7721 29.136C15.6681 28.464 16.1161 27.52 16.1161 26.304C16.1161 25.248 15.8121 24.384 15.2041 23.712C14.5961 23.04 13.5401 22.464 12.0361 21.984ZM37.3268 36.48C34.5108 36.48 32.4628 35.696 31.1828 34.128C29.9348 32.56 29.3108 29.872 29.3108 26.064V13.776C29.3108 13.04 29.5828 12.4 30.1268 11.856C30.6708 11.312 31.3108 11.04 32.0468 11.04H34.1588C34.8948 11.04 35.5348 11.312 36.0788 11.856C36.6228 12.4 36.8948 13.04 36.8948 13.776V25.536C36.8948 27.392 37.1348 28.672 37.6148 29.376C38.1268 30.048 38.9908 30.384 40.2068 30.384C41.3268 30.384 42.3508 29.936 43.2788 29.04C44.2068 28.112 44.6708 27.12 44.6708 26.064V13.776C44.6708 13.04 44.9428 12.4 45.4868 11.856C46.0308 11.312 46.6708 11.04 47.4068 11.04H49.7108C50.4468 11.04 51.0868 11.312 51.6308 11.856C52.1748 12.4 52.4468 13.04 52.4468 13.776V33.264C52.4468 34 52.1748 34.64 51.6308 35.184C51.0868 35.728 50.4468 36 49.7108 36H47.7428C46.9748 36 46.3188 35.744 45.7748 35.232C45.2628 34.688 44.9908 34.032 44.9588 33.264V32.88C44.9588 32.848 44.9428 32.832 44.9108 32.832L44.8148 32.928C42.7348 35.296 40.2388 36.48 37.3268 36.48ZM67.7288 26.4C64.2728 25.76 61.7928 24.768 60.2888 23.424C58.8168 22.08 58.0808 20.304 58.0808 18.096C58.0808 15.728 58.9608 13.888 60.7208 12.576C62.5128 11.232 65.2008 10.56 68.7848 10.56C70.8968 10.56 73.0568 10.736 75.2648 11.088C76.0328 11.216 76.6568 11.584 77.1368 12.192C77.6488 12.8 77.9048 13.504 77.9048 14.304V14.544C77.9048 15.216 77.6328 15.76 77.0888 16.176C76.5768 16.592 75.9848 16.736 75.3128 16.608C73.2328 16.192 71.3128 15.984 69.5528 15.984C68.2408 15.984 67.3128 16.144 66.7688 16.464C66.2568 16.784 66.0008 17.264 66.0008 17.904C66.0008 19.12 66.9608 19.92 68.8808 20.304C72.5288 20.912 75.0728 21.872 76.5128 23.184C77.9848 24.496 78.7208 26.4 78.7208 28.896C78.7208 31.296 77.8248 33.168 76.0328 34.512C74.2408 35.824 71.6328 36.48 68.2088 36.48C65.7128 36.48 63.3448 36.24 61.1048 35.76C60.3368 35.6 59.6968 35.2 59.1848 34.56C58.7048 33.888 58.4648 33.136 58.4648 32.304V31.92C58.4648 31.248 58.7368 30.736 59.2808 30.384C59.8248 30 60.4328 29.888 61.1048 30.048C63.1848 30.592 65.2328 30.864 67.2488 30.864C69.6168 30.864 70.8008 30.176 70.8008 28.8C70.8008 28.16 70.5768 27.664 70.1288 27.312C69.7128 26.96 68.9128 26.656 67.7288 26.4ZM92.1237 36.48C89.3077 36.48 87.2597 35.696 85.9797 34.128C84.7317 32.56 84.1077 29.872 84.1077 26.064V13.776C84.1077 13.04 84.3797 12.4 84.9237 11.856C85.4677 11.312 86.1077 11.04 86.8437 11.04H88.9557C89.6917 11.04 90.3317 11.312 90.8757 11.856C91.4197 12.4 91.6917 13.04 91.6917 13.776V25.536C91.6917 27.392 91.9317 28.672 92.4117 29.376C92.9237 30.048 93.7877 30.384 95.0037 30.384C96.1237 30.384 97.1477 29.936 98.0757 29.04C99.0037 28.112 99.4677 27.12 99.4677 26.064V13.776C99.4677 13.04 99.7397 12.4 100.284 11.856C100.828 11.312 101.468 11.04 102.204 11.04H104.508C105.244 11.04 105.884 11.312 106.428 11.856C106.972 12.4 107.244 13.04 107.244 13.776V33.264C107.244 34 106.972 34.64 106.428 35.184C105.884 35.728 105.244 36 104.508 36H102.54C101.772 36 101.116 35.744 100.572 35.232C100.06 34.688 99.7877 34.032 99.7557 33.264V32.88C99.7557 32.848 99.7397 32.832 99.7077 32.832L99.6117 32.928C97.5317 35.296 95.0357 36.48 92.1237 36.48Z" fill="#FFB800"/>
<path d="M116.334 36C115.598 36 114.958 35.728 114.414 35.184C113.87 34.64 113.598 34 113.598 33.264V13.776C113.598 13.04 113.87 12.4 114.414 11.856C114.958 11.312 115.598 11.04 116.334 11.04H118.11C118.878 11.04 119.518 11.312 120.03 11.856C120.574 12.368 120.878 13.008 120.942 13.776L120.99 14.208C120.99 14.24 121.006 14.256 121.038 14.256C121.102 14.256 121.134 14.24 121.134 14.208C123.022 11.776 125.182 10.56 127.614 10.56C129.086 10.56 130.254 10.832 131.118 11.376C131.982 11.888 132.782 12.816 133.518 14.16C133.518 14.224 133.55 14.256 133.614 14.256L133.71 14.16C135.918 11.76 138.222 10.56 140.622 10.56C143.342 10.56 145.31 11.296 146.526 12.768C147.742 14.208 148.35 16.672 148.35 20.16V33.264C148.35 34 148.078 34.64 147.534 35.184C146.99 35.728 146.35 36 145.614 36H143.502C142.766 36 142.126 35.728 141.582 35.184C141.038 34.64 140.766 34 140.766 33.264V20.64C140.766 18.912 140.574 17.776 140.19 17.232C139.806 16.656 139.086 16.368 138.03 16.368C137.294 16.368 136.574 16.672 135.87 17.28C135.198 17.888 134.862 18.48 134.862 19.056V33.264C134.862 34 134.59 34.64 134.046 35.184C133.502 35.728 132.862 36 132.126 36H130.014C129.278 36 128.638 35.728 128.094 35.184C127.55 34.64 127.278 34 127.278 33.264V20.64C127.278 18.912 127.086 17.776 126.702 17.232C126.35 16.656 125.646 16.368 124.59 16.368C123.854 16.368 123.134 16.672 122.43 17.28C121.726 17.888 121.374 18.48 121.374 19.056V33.264C121.374 34 121.102 34.64 120.558 35.184C120.014 35.728 119.374 36 118.638 36H116.334ZM165.13 15.792C163.69 15.792 162.602 16.176 161.866 16.944C161.13 17.68 160.666 18.96 160.474 20.784C160.474 21.04 160.586 21.168 160.81 21.168H168.922C169.21 21.168 169.354 21.024 169.354 20.736C169.226 17.44 167.818 15.792 165.13 15.792ZM166.33 36.48C161.978 36.48 158.618 35.376 156.25 33.168C153.914 30.96 152.746 27.744 152.746 23.52C152.746 19.328 153.786 16.128 155.866 13.92C157.978 11.68 161.018 10.56 164.986 10.56C172.602 10.56 176.474 14.72 176.602 23.04C176.602 23.808 176.298 24.464 175.69 25.008C175.114 25.52 174.442 25.776 173.674 25.776H160.858C160.538 25.776 160.41 25.92 160.474 26.208C160.73 27.968 161.402 29.232 162.49 30C163.61 30.736 165.274 31.104 167.482 31.104C168.922 31.104 170.474 30.896 172.138 30.48C172.81 30.32 173.402 30.448 173.914 30.864C174.458 31.28 174.73 31.824 174.73 32.496V32.592C174.73 33.392 174.474 34.128 173.962 34.8C173.482 35.44 172.858 35.824 172.09 35.952C170.234 36.304 168.314 36.48 166.33 36.48ZM184.208 36C183.472 36 182.832 35.728 182.288 35.184C181.776 34.64 181.52 34 181.52 33.264V13.776C181.52 13.04 181.776 12.4 182.288 11.856C182.832 11.312 183.472 11.04 184.208 11.04H186.56C187.296 11.04 187.92 11.312 188.432 11.856C188.976 12.4 189.248 13.04 189.248 13.776V15.792C189.248 15.824 189.264 15.84 189.296 15.84C189.36 15.84 189.392 15.824 189.392 15.792C191.376 13.136 194.144 11.584 197.696 11.136C198.432 11.04 199.056 11.264 199.568 11.808C200.112 12.352 200.384 13.008 200.384 13.776V14.16C200.384 14.896 200.112 15.536 199.568 16.08C199.056 16.624 198.416 16.928 197.648 16.992C195.056 17.28 193.04 18.176 191.6 19.68C190.192 21.152 189.488 23.072 189.488 25.44V33.264C189.488 34 189.216 34.64 188.672 35.184C188.16 35.728 187.536 36 186.8 36H184.208ZM213.53 36.48C210.714 36.48 208.666 35.696 207.386 34.128C206.138 32.56 205.514 29.872 205.514 26.064V13.776C205.514 13.04 205.786 12.4 206.33 11.856C206.874 11.312 207.514 11.04 208.25 11.04H210.362C211.098 11.04 211.738 11.312 212.282 11.856C212.826 12.4 213.098 13.04 213.098 13.776V25.536C213.098 27.392 213.338 28.672 213.818 29.376C214.33 30.048 215.194 30.384 216.41 30.384C217.53 30.384 218.554 29.936 219.482 29.04C220.41 28.112 220.874 27.12 220.874 26.064V13.776C220.874 13.04 221.146 12.4 221.69 11.856C222.234 11.312 222.874 11.04 223.61 11.04H225.914C226.65 11.04 227.29 11.312 227.834 11.856C228.378 12.4 228.65 13.04 228.65 13.776V33.264C228.65 34 228.378 34.64 227.834 35.184C227.29 35.728 226.65 36 225.914 36H223.946C223.178 36 222.522 35.744 221.978 35.232C221.466 34.688 221.194 34.032 221.162 33.264V32.88C221.162 32.848 221.146 32.832 221.114 32.832L221.018 32.928C218.938 35.296 216.442 36.48 213.53 36.48Z" fill="#35A1DC"/>
</svg>
