<svg width="31" height="31" viewBox="0 0 31 31" fill="none" xmlns="http://www.w3.org/2000/svg">
<path fill-rule="evenodd" clip-rule="evenodd" d="M15.5 0.916626C7.44565 0.916626 0.916687 7.44558 0.916687 15.5C0.916687 23.5543 7.44565 30.0833 15.5 30.0833C23.5544 30.0833 30.0834 23.5543 30.0834 15.5C30.0834 7.44558 23.5544 0.916626 15.5 0.916626ZM10.3959 11.8541C10.3959 11.1838 10.5279 10.5201 10.7844 9.90085C11.0409 9.28158 11.4169 8.7189 11.8908 8.24493C12.3648 7.77097 12.9275 7.395 13.5467 7.13849C14.166 6.88198 14.8297 6.74996 15.5 6.74996C16.1703 6.74996 16.834 6.88198 17.4533 7.13849C18.0726 7.395 18.6352 7.77097 19.1092 8.24493C19.5832 8.7189 19.9591 9.28158 20.2157 9.90085C20.4722 10.5201 20.6042 11.1838 20.6042 11.8541C20.6042 13.2078 20.0664 14.5061 19.1092 15.4633C18.152 16.4205 16.8537 16.9583 15.5 16.9583C14.1463 16.9583 12.848 16.4205 11.8908 15.4633C10.9336 14.5061 10.3959 13.2078 10.3959 11.8541ZM24.6263 22.7683C23.5346 24.1415 22.1468 25.2503 20.5665 26.0119C18.9862 26.7735 17.2543 27.1683 15.5 27.1666C13.7458 27.1683 12.0138 26.7735 10.4335 26.0119C8.85323 25.2503 7.46543 24.1415 6.37377 22.7683C8.73773 21.0722 11.9636 19.875 15.5 19.875C19.0365 19.875 22.2623 21.0722 24.6263 22.7683Z" fill="#FFB800"/>
</svg>
